<?xml version="1.0" encoding="UTF-8" standalone="no"?>
<svg width="583px" height="441px" viewBox="0 0 583 441" version="1.1" xmlns="http://www.w3.org/2000/svg" xmlns:xlink="http://www.w3.org/1999/xlink">
    <!-- Generator: Sketch 39.1 (31720) - http://www.bohemiancoding.com/sketch -->
    <title>2d-mode</title>
    <desc>Created with Sketch.</desc>
    <defs></defs>
    <g id="Page-1" stroke="none" stroke-width="1" fill="none" fill-rule="evenodd">
        <g id="2d-mode">
            <g id="Group" transform="translate(85.000000, 0.000000)">
                <polygon id="Triangle" stroke="#979797" fill-opacity="0.3" fill="#D0021B" points="93.5 221 186 441 1 441"></polygon>
                <path d="M2.5,0.5 L186.5,439.5" id="Line" stroke="#000000" stroke-width="5" stroke-linecap="square"></path>
                <path d="M0.5,439.5 L185.5,2.5" id="Line" stroke="#000000" stroke-width="5" stroke-linecap="square"></path>
            </g>
            <g id="Group-Copy" transform="translate(395.000000, 0.000000)">
                <polygon id="Triangle" stroke="#979797" fill-opacity="0.3" fill="#D0021B" points="93.5 221 186 441 1 441"></polygon>
                <path d="M2.5,0.5 L186.5,439.5" id="Line" stroke="#000000" stroke-width="5" stroke-linecap="square"></path>
                <path d="M0.5,439.5 L185.5,2.5" id="Line" stroke="#000000" stroke-width="5" stroke-linecap="square"></path>
            </g>
            <text id="K" font-family="OpenSans, Open Sans" font-size="50" font-weight="normal" fill="#000000">
                <tspan x="120" y="241">K</tspan>
            </text>
            <text id="K’" font-family="OpenSans, Open Sans" font-size="50" font-weight="normal" fill="#000000">
                <tspan x="508" y="241">K’</tspan>
            </text>
            <path d="M257.5,398.5 L257.5,68.5" id="Line" stroke="#0088D6" stroke-width="5" fill="#4990E2"></path>
            <path id="Line-decoration-1" d="M260.5,79.3 L257.5,68.5 L254.5,79.3" stroke="#0088D6" stroke-width="5" fill="#4990E2"></path>
            <path d="M441.5,126.5 L441.5,315.5" id="Line-Copy" stroke="#E7452E" stroke-width="5" fill="#D0011B"></path>
            <path id="Line-Copy-decoration-1" d="M438.5,304.7 L441.5,315.5 L444.5,304.7" stroke="#E7452E" stroke-width="5" fill="#D0011B"></path>
            <path d="M258.5,57.5 L431.5,122.5" id="Line" stroke="#242021" stroke-width="5" stroke-dasharray="10,5"></path>
            <path d="M284.5,388.5 L442.5,322.5" id="Line-Copy-2" stroke="#242021" stroke-width="5" stroke-dasharray="10,5"></path>
            <path d="M420,118 L434.287625,123.372501" id="Line" stroke="#242021" stroke-width="5"></path>
            <path id="Line-decoration-1" d="M423.122787,122.379327 L434.287625,123.372501 L425.234573,116.763247" stroke="#242021" stroke-width="5"></path>
            <path d="M280.005762,390 L268,395.060365" id="Line-Copy-3" stroke="#242021" stroke-width="5"></path>
            <path id="Line-Copy-3-decoration-1" d="M276.786879,388.101144 L268,395.060365 L279.117297,393.630082" stroke="#242021" stroke-width="5"></path>
            <g id="axis" transform="translate(16.000000, 239.000000)">
                <g id="Group-3" stroke-width="1" fill-rule="evenodd" transform="translate(0.000000, 20.000000)" stroke="#242021">
                    <path d="M1.5,62.5 L1.5,0.5" id="Line" stroke-width="3"></path>
                    <path id="Line-decoration-1" d="M1.5,0.5 L-1.5,11.3 L4.5,11.3 L1.5,0.5 Z" stroke-width="3"></path>
                    <path d="M0,62 L62,62" id="Line-Copy-2" stroke-width="3"></path>
                    <path id="Line-Copy-2-decoration-1" d="M62,62 L51.2,59 L51.2,65 L62,62 Z" stroke-width="3"></path>
                </g>
                <text id="E" font-family="OpenSans, Open Sans" font-size="24" font-weight="normal" fill="#000000">
                    <tspan x="5" y="22">E</tspan>
                </text>
                <text id="k" font-family="OpenSans, Open Sans" font-size="24" font-weight="normal" fill="#000000">
                    <tspan x="62" y="76">k</tspan>
                </text>
            </g>
        </g>
    </g>
</svg>